<svg width="100" height="28" viewBox="0 0 100 28" fill="none" xmlns="http://www.w3.org/2000/svg">
<path d="M14 0C6.26801 0 0 6.26801 0 14C0 21.732 6.26801 28 14 28C21.732 28 28 21.732 28 14C28 6.26801 21.732 0 14 0Z" fill="#FFFFFF"/>
<path d="M42.1538 27.5H32L37.0769 0.5H47.2308L42.1538 27.5Z" fill="#FFFFFF"/>
<path d="M70.1538 27.5H60L65.0769 0.5H75.2308L70.1538 27.5Z" fill="#FFFFFF"/>
<path d="M98 14C98 21.732 91.732 28 84 28C76.268 28 70 21.732 70 14C70 6.26801 76.268 0 84 0C91.732 0 98 6.26801 98 14ZM84 4C78.4772 4 74 8.47715 74 14C74 19.5228 78.4772 24 84 24C89.5228 24 94 19.5228 94 14C94 8.47715 89.5228 4 84 4Z" fill="#FFFFFF"/>
</svg>